<svg width="18" height="18" viewBox="0 0 18 18" fill="none" xmlns="http://www.w3.org/2000/svg">
<path d="M7.5 3C6.70435 3 5.94129 3.31607 5.37868 3.87868C4.81607 4.44129 4.5 5.20435 4.5 6C4.5 6.79565 4.81607 7.55871 5.37868 8.12132C5.94129 8.68393 6.70435 9 7.5 9C8.29565 9 9.05871 8.68393 9.62132 8.12132C10.1839 7.55871 10.5 6.79565 10.5 6C10.5 5.20435 10.1839 4.44129 9.62132 3.87868C9.05871 3.31607 8.29565 3 7.5 3ZM7.5 4.5C7.89782 4.5 8.27936 4.65804 8.56066 4.93934C8.84196 5.22064 9 5.60218 9 6C9 6.39782 8.84196 6.77936 8.56066 7.06066C8.27936 7.34196 7.89782 7.5 7.5 7.5C7.10218 7.5 6.72064 7.34196 6.43934 7.06066C6.15804 6.77936 6 6.39782 6 6C6 5.60218 6.15804 5.22064 6.43934 4.93934C6.72064 4.65804 7.10218 4.5 7.5 4.5ZM12.75 9C12.63 9 12.57 9.06 12.57 9.18L12.375 10.125C12.21 10.26 11.97 10.38 11.79 10.5L10.83 10.125C10.77 10.125 10.65 10.125 10.59 10.2L9.87 11.52C9.81 11.58 9.81 11.7 9.93 11.76L10.71 12.375V13.125L9.93 13.74C9.87 13.8 9.81 13.92 9.87 13.98L10.59 15.3C10.65 15.375 10.77 15.375 10.83 15.375L11.79 15C11.97 15.12 12.21 15.24 12.375 15.375L12.57 16.32C12.57 16.44 12.63 16.5 12.75 16.5H14.25C14.31 16.5 14.43 16.44 14.43 16.32L14.55 15.375C14.79 15.24 15.03 15.12 15.21 15L16.125 15.375C16.23 15.375 16.35 15.375 16.35 15.3L17.13 13.98C17.19 13.92 17.13 13.8 17.07 13.74L16.29 13.125V12.375L17.07 11.76C17.13 11.7 17.19 11.58 17.13 11.52L16.35 10.2C16.35 10.125 16.23 10.125 16.125 10.125L15.21 10.5C15.03 10.38 14.79 10.26 14.55 10.125L14.43 9.18C14.43 9.06 14.31 9 14.25 9H12.75ZM7.5 9.75C5.4975 9.75 1.5 10.7475 1.5 12.75V15H8.7525C8.5425 14.5575 8.3925 14.0775 8.3175 13.575H2.925V12.75C2.925 12.27 5.2725 11.175 7.5 11.175C7.8225 11.175 8.1525 11.205 8.475 11.25C8.625 10.77 8.8275 10.32 9.09 9.9075C8.505 9.81 7.95 9.75 7.5 9.75ZM13.53 11.625C14.13 11.625 14.625 12.12 14.625 12.78C14.625 13.38 14.13 13.875 13.53 13.875C12.87 13.875 12.375 13.38 12.375 12.78C12.375 12.12 12.87 11.625 13.53 11.625Z" fill="#08025A"/>
</svg>
