<svg width="133" height="25" viewBox="0 0 133 25" fill="none" xmlns="http://www.w3.org/2000/svg">
<path d="M0.888672 7.53613H4.60059C5.36165 7.53613 6.01562 7.65007 6.5625 7.87793C7.11393 8.10579 7.53776 8.44303 7.83398 8.88965C8.13021 9.33626 8.27832 9.88542 8.27832 10.5371C8.27832 11.0703 8.18717 11.5283 8.00488 11.9111C7.82715 12.2894 7.57422 12.6061 7.24609 12.8613C6.92253 13.112 6.54199 13.3125 6.10449 13.4629L5.45508 13.8047H2.22852L2.21484 12.2051H4.61426C4.97428 12.2051 5.27279 12.1413 5.50977 12.0137C5.74674 11.8861 5.92448 11.7083 6.04297 11.4805C6.16602 11.2526 6.22754 10.9883 6.22754 10.6875C6.22754 10.3685 6.16829 10.0928 6.0498 9.86035C5.93132 9.62793 5.7513 9.4502 5.50977 9.32715C5.26823 9.2041 4.96517 9.14258 4.60059 9.14258H2.93945V17.4893H0.888672V7.53613ZM6.45312 17.4893L4.18359 13.0527L6.35059 13.0391L8.64746 17.3936V17.4893H6.45312ZM14.0066 15.8213V12.5264C14.0066 12.2894 13.9678 12.0866 13.8904 11.918C13.8129 11.7448 13.6921 11.6104 13.528 11.5146C13.3685 11.4189 13.1612 11.3711 12.906 11.3711C12.6872 11.3711 12.4981 11.4098 12.3386 11.4873C12.1791 11.5602 12.056 11.6673 11.9695 11.8086C11.8829 11.9453 11.8396 12.1071 11.8396 12.2939H9.87082C9.87082 11.9795 9.94374 11.681 10.0896 11.3984C10.2354 11.1159 10.4473 10.8675 10.7253 10.6533C11.0033 10.4346 11.3337 10.2637 11.7165 10.1406C12.1039 10.0176 12.5368 9.95605 13.0154 9.95605C13.5896 9.95605 14.1 10.0518 14.5466 10.2432C14.9932 10.4346 15.3441 10.7217 15.5993 11.1045C15.8591 11.4873 15.989 11.9658 15.989 12.54V15.7051C15.989 16.1107 16.014 16.4434 16.0642 16.7031C16.1143 16.9583 16.1872 17.1816 16.2829 17.373V17.4893H14.2937C14.198 17.2887 14.1251 17.0381 14.0749 16.7373C14.0293 16.432 14.0066 16.1266 14.0066 15.8213ZM14.2663 12.9844L14.28 14.0986H13.1794C12.9196 14.0986 12.6941 14.1283 12.5027 14.1875C12.3112 14.2467 12.154 14.3311 12.031 14.4404C11.9079 14.5452 11.8168 14.6683 11.7575 14.8096C11.7029 14.9508 11.6755 15.1058 11.6755 15.2744C11.6755 15.443 11.7142 15.5957 11.7917 15.7324C11.8692 15.8646 11.9808 15.9694 12.1267 16.0469C12.2725 16.1198 12.4434 16.1562 12.6394 16.1562C12.9356 16.1562 13.1931 16.097 13.4118 15.9785C13.6306 15.86 13.7992 15.7142 13.9177 15.541C14.0407 15.3678 14.1045 15.2038 14.1091 15.0488L14.6286 15.8828C14.5557 16.0697 14.4555 16.2633 14.3279 16.4639C14.2048 16.6644 14.0476 16.8535 13.8562 17.0312C13.6648 17.2044 13.4346 17.348 13.1657 17.4619C12.8969 17.5713 12.5779 17.626 12.2087 17.626C11.7393 17.626 11.3132 17.5326 10.9304 17.3457C10.5521 17.1543 10.2514 16.8923 10.028 16.5596C9.8093 16.2223 9.69992 15.8395 9.69992 15.4111C9.69992 15.0238 9.77284 14.6797 9.91867 14.3789C10.0645 14.0781 10.2787 13.8252 10.5612 13.6201C10.8484 13.4105 11.2061 13.2533 11.6345 13.1484C12.0629 13.0391 12.5596 12.9844 13.1247 12.9844H14.2663ZM20.2954 17.4893H18.3129V9.43652C18.3129 8.87598 18.4223 8.4043 18.6411 8.02148C18.8644 7.63411 19.1765 7.34245 19.5776 7.14648C19.9832 6.94596 20.464 6.8457 21.02 6.8457C21.2023 6.8457 21.3777 6.85938 21.5463 6.88672C21.7149 6.90951 21.879 6.93913 22.0385 6.97559L22.018 8.45898C21.9314 8.4362 21.8403 8.42025 21.7446 8.41113C21.6489 8.40202 21.5372 8.39746 21.4096 8.39746C21.1726 8.39746 20.9698 8.43848 20.8012 8.52051C20.6371 8.59798 20.5118 8.71419 20.4252 8.86914C20.3386 9.02409 20.2954 9.21322 20.2954 9.43652V17.4893ZM21.7719 10.0928V11.4873H17.2123V10.0928H21.7719ZM27.0763 15.8213V12.5264C27.0763 12.2894 27.0376 12.0866 26.9601 11.918C26.8826 11.7448 26.7619 11.6104 26.5978 11.5146C26.4383 11.4189 26.231 11.3711 25.9757 11.3711C25.757 11.3711 25.5679 11.4098 25.4084 11.4873C25.2489 11.5602 25.1258 11.6673 25.0392 11.8086C24.9526 11.9453 24.9093 12.1071 24.9093 12.2939H22.9406C22.9406 11.9795 23.0135 11.681 23.1593 11.3984C23.3052 11.1159 23.5171 10.8675 23.7951 10.6533C24.0731 10.4346 24.4035 10.2637 24.7863 10.1406C25.1737 10.0176 25.6066 9.95605 26.0851 9.95605C26.6593 9.95605 27.1698 10.0518 27.6164 10.2432C28.063 10.4346 28.4139 10.7217 28.6691 11.1045C28.9289 11.4873 29.0588 11.9658 29.0588 12.54V15.7051C29.0588 16.1107 29.0838 16.4434 29.1339 16.7031C29.1841 16.9583 29.257 17.1816 29.3527 17.373V17.4893H27.3634C27.2677 17.2887 27.1948 17.0381 27.1447 16.7373C27.0991 16.432 27.0763 16.1266 27.0763 15.8213ZM27.3361 12.9844L27.3498 14.0986H26.2492C25.9894 14.0986 25.7638 14.1283 25.5724 14.1875C25.381 14.2467 25.2238 14.3311 25.1007 14.4404C24.9777 14.5452 24.8865 14.6683 24.8273 14.8096C24.7726 14.9508 24.7453 15.1058 24.7453 15.2744C24.7453 15.443 24.784 15.5957 24.8615 15.7324C24.939 15.8646 25.0506 15.9694 25.1964 16.0469C25.3423 16.1198 25.5132 16.1562 25.7091 16.1562C26.0054 16.1562 26.2629 16.097 26.4816 15.9785C26.7004 15.86 26.869 15.7142 26.9875 15.541C27.1105 15.3678 27.1743 15.2038 27.1789 15.0488L27.6984 15.8828C27.6255 16.0697 27.5252 16.2633 27.3976 16.4639C27.2746 16.6644 27.1173 16.8535 26.9259 17.0312C26.7345 17.2044 26.5044 17.348 26.2355 17.4619C25.9666 17.5713 25.6476 17.626 25.2785 17.626C24.8091 17.626 24.383 17.5326 24.0002 17.3457C23.6219 17.1543 23.3211 16.8923 23.0978 16.5596C22.8791 16.2223 22.7697 15.8395 22.7697 15.4111C22.7697 15.0238 22.8426 14.6797 22.9884 14.3789C23.1343 14.0781 23.3485 13.8252 23.631 13.6201C23.9181 13.4105 24.2759 13.2533 24.7043 13.1484C25.1326 13.0391 25.6294 12.9844 26.1945 12.9844H27.3361ZM34.2606 17.626C33.6864 17.626 33.1714 17.5348 32.7157 17.3525C32.26 17.1657 31.8726 16.9082 31.5536 16.5801C31.2391 16.252 30.9976 15.8714 30.829 15.4385C30.6604 15.001 30.5761 14.5361 30.5761 14.0439V13.7705C30.5761 13.21 30.6558 12.6973 30.8153 12.2324C30.9748 11.7676 31.2027 11.3643 31.4989 11.0225C31.7997 10.6807 32.1643 10.4186 32.5927 10.2363C33.021 10.0495 33.5041 9.95605 34.0419 9.95605C34.566 9.95605 35.0308 10.0426 35.4364 10.2158C35.842 10.389 36.1815 10.6351 36.455 10.9541C36.733 11.2731 36.9426 11.6559 37.0839 12.1025C37.2251 12.5446 37.2958 13.0368 37.2958 13.5791V14.3994H31.4169V13.0869H35.3612V12.9365C35.3612 12.6631 35.3111 12.4193 35.2108 12.2051C35.1151 11.9863 34.9693 11.8132 34.7733 11.6855C34.5774 11.5579 34.3267 11.4941 34.0214 11.4941C33.7616 11.4941 33.5383 11.5511 33.3514 11.665C33.1646 11.779 33.0119 11.9385 32.8934 12.1436C32.7795 12.3486 32.6929 12.5902 32.6337 12.8682C32.579 13.1416 32.5516 13.4424 32.5516 13.7705V14.0439C32.5516 14.3402 32.5927 14.6136 32.6747 14.8643C32.7613 15.1149 32.882 15.3314 33.037 15.5137C33.1965 15.696 33.3879 15.8372 33.6112 15.9375C33.8391 16.0378 34.0966 16.0879 34.3837 16.0879C34.7391 16.0879 35.0695 16.0195 35.3749 15.8828C35.6848 15.7415 35.9514 15.5296 36.1747 15.2471L37.1317 16.2861C36.9768 16.5094 36.7649 16.7236 36.496 16.9287C36.2317 17.1338 35.9126 17.3024 35.5389 17.4346C35.1652 17.5622 34.7391 17.626 34.2606 17.626ZM40.775 6.98926V17.4893H38.7994V6.98926H40.775ZM48.6221 7.53613V17.4893H46.5713V7.53613H48.6221ZM52.587 11.7881V13.3877H48.0616V11.7881H52.587ZM53.0655 7.53613V9.14258H48.0616V7.53613H53.0655ZM57.6658 17.626C57.0916 17.626 56.5766 17.5348 56.1209 17.3525C55.6651 17.1657 55.2778 16.9082 54.9588 16.5801C54.6443 16.252 54.4028 15.8714 54.2341 15.4385C54.0655 15.001 53.9812 14.5361 53.9812 14.0439V13.7705C53.9812 13.21 54.061 12.6973 54.2205 12.2324C54.38 11.7676 54.6078 11.3643 54.9041 11.0225C55.2048 10.6807 55.5694 10.4186 55.9978 10.2363C56.4262 10.0495 56.9093 9.95605 57.447 9.95605C57.9711 9.95605 58.436 10.0426 58.8416 10.2158C59.2472 10.389 59.5867 10.6351 59.8601 10.9541C60.1381 11.2731 60.3477 11.6559 60.489 12.1025C60.6303 12.5446 60.7009 13.0368 60.7009 13.5791V14.3994H54.822V13.0869H58.7664V12.9365C58.7664 12.6631 58.7162 12.4193 58.616 12.2051C58.5203 11.9863 58.3744 11.8132 58.1785 11.6855C57.9825 11.5579 57.7319 11.4941 57.4265 11.4941C57.1668 11.4941 56.9435 11.5511 56.7566 11.665C56.5698 11.779 56.4171 11.9385 56.2986 12.1436C56.1847 12.3486 56.0981 12.5902 56.0388 12.8682C55.9841 13.1416 55.9568 13.4424 55.9568 13.7705V14.0439C55.9568 14.3402 55.9978 14.6136 56.0798 14.8643C56.1664 15.1149 56.2872 15.3314 56.4422 15.5137C56.6017 15.696 56.7931 15.8372 57.0164 15.9375C57.2442 16.0378 57.5017 16.0879 57.7888 16.0879C58.1443 16.0879 58.4747 16.0195 58.78 15.8828C59.0899 15.7415 59.3565 15.5296 59.5798 15.2471L60.5369 16.2861C60.3819 16.5094 60.17 16.7236 59.9011 16.9287C59.6368 17.1338 59.3178 17.3024 58.9441 17.4346C58.5704 17.5622 58.1443 17.626 57.6658 17.626ZM64.0708 11.7061V17.4893H62.102V10.0928H63.9546L64.0708 11.7061ZM66.2993 10.0449L66.2651 11.8701C66.1694 11.8564 66.0532 11.8451 65.9165 11.8359C65.7843 11.8223 65.6636 11.8154 65.5542 11.8154C65.2762 11.8154 65.0346 11.8519 64.8296 11.9248C64.629 11.9932 64.4604 12.0957 64.3237 12.2324C64.1915 12.3691 64.0913 12.5355 64.0229 12.7314C63.9591 12.9274 63.9227 13.1507 63.9136 13.4014L63.5171 13.2783C63.5171 12.7998 63.5649 12.36 63.6606 11.959C63.7563 11.5534 63.8953 11.2002 64.0776 10.8994C64.2645 10.5986 64.4923 10.3662 64.7612 10.2021C65.0301 10.0381 65.3377 9.95605 65.6841 9.95605C65.7934 9.95605 65.9051 9.96517 66.019 9.9834C66.133 9.99707 66.2264 10.0176 66.2993 10.0449ZM69.4777 11.7061V17.4893H67.509V10.0928H69.3615L69.4777 11.7061ZM71.7063 10.0449L71.6721 11.8701C71.5764 11.8564 71.4602 11.8451 71.3234 11.8359C71.1913 11.8223 71.0705 11.8154 70.9611 11.8154C70.6831 11.8154 70.4416 11.8519 70.2365 11.9248C70.036 11.9932 69.8674 12.0957 69.7307 12.2324C69.5985 12.3691 69.4982 12.5355 69.4299 12.7314C69.3661 12.9274 69.3296 13.1507 69.3205 13.4014L68.924 13.2783C68.924 12.7998 68.9719 12.36 69.0676 11.959C69.1633 11.5534 69.3023 11.2002 69.4846 10.8994C69.6714 10.5986 69.8993 10.3662 70.1682 10.2021C70.437 10.0381 70.7447 9.95605 71.091 9.95605C71.2004 9.95605 71.312 9.96517 71.426 9.9834C71.5399 9.99707 71.6333 10.0176 71.7063 10.0449ZM76.1835 17.626C75.6093 17.626 75.0943 17.5348 74.6386 17.3525C74.1829 17.1657 73.7955 16.9082 73.4765 16.5801C73.162 16.252 72.9205 15.8714 72.7519 15.4385C72.5833 15.001 72.4989 14.5361 72.4989 14.0439V13.7705C72.4989 13.21 72.5787 12.6973 72.7382 12.2324C72.8977 11.7676 73.1256 11.3643 73.4218 11.0225C73.7226 10.6807 74.0872 10.4186 74.5155 10.2363C74.9439 10.0495 75.427 9.95605 75.9648 9.95605C76.4889 9.95605 76.9537 10.0426 77.3593 10.2158C77.7649 10.389 78.1044 10.6351 78.3779 10.9541C78.6558 11.2731 78.8655 11.6559 79.0068 12.1025C79.148 12.5446 79.2187 13.0368 79.2187 13.5791V14.3994H73.3398V13.0869H77.2841V12.9365C77.2841 12.6631 77.234 12.4193 77.1337 12.2051C77.038 11.9863 76.8922 11.8132 76.6962 11.6855C76.5002 11.5579 76.2496 11.4941 75.9443 11.4941C75.6845 11.4941 75.4612 11.5511 75.2743 11.665C75.0875 11.779 74.9348 11.9385 74.8163 12.1436C74.7024 12.3486 74.6158 12.5902 74.5566 12.8682C74.5019 13.1416 74.4745 13.4424 74.4745 13.7705V14.0439C74.4745 14.3402 74.5155 14.6136 74.5976 14.8643C74.6842 15.1149 74.8049 15.3314 74.9599 15.5137C75.1194 15.696 75.3108 15.8372 75.5341 15.9375C75.762 16.0378 76.0195 16.0879 76.3066 16.0879C76.662 16.0879 76.9924 16.0195 77.2978 15.8828C77.6077 15.7415 77.8743 15.5296 78.0976 15.2471L79.0546 16.2861C78.8997 16.5094 78.6877 16.7236 78.4189 16.9287C78.1545 17.1338 77.8355 17.3024 77.4618 17.4346C77.0881 17.5622 76.662 17.626 76.1835 17.626ZM82.6979 10.0928V17.4893H80.7223V10.0928H82.6979ZM80.5993 8.16504C80.5993 7.87793 80.6995 7.64095 80.9 7.4541C81.1006 7.26725 81.3694 7.17383 81.7067 7.17383C82.0394 7.17383 82.306 7.26725 82.5065 7.4541C82.7116 7.64095 82.8141 7.87793 82.8141 8.16504C82.8141 8.45215 82.7116 8.68913 82.5065 8.87598C82.306 9.06283 82.0394 9.15625 81.7067 9.15625C81.3694 9.15625 81.1006 9.06283 80.9 8.87598C80.6995 8.68913 80.5993 8.45215 80.5993 8.16504ZM86.5736 11.7061V17.4893H84.6048V10.0928H86.4574L86.5736 11.7061ZM88.8021 10.0449L88.7679 11.8701C88.6722 11.8564 88.556 11.8451 88.4193 11.8359C88.2871 11.8223 88.1664 11.8154 88.057 11.8154C87.779 11.8154 87.5375 11.8519 87.3324 11.9248C87.1319 11.9932 86.9632 12.0957 86.8265 12.2324C86.6944 12.3691 86.5941 12.5355 86.5257 12.7314C86.4619 12.9274 86.4255 13.1507 86.4164 13.4014L86.0199 13.2783C86.0199 12.7998 86.0677 12.36 86.1634 11.959C86.2591 11.5534 86.3981 11.2002 86.5804 10.8994C86.7673 10.5986 86.9951 10.3662 87.264 10.2021C87.5329 10.0381 87.8405 9.95605 88.1869 9.95605C88.2962 9.95605 88.4079 9.96517 88.5218 9.9834C88.6358 9.99707 88.7292 10.0176 88.8021 10.0449ZM93.7716 15.8213V12.5264C93.7716 12.2894 93.7328 12.0866 93.6553 11.918C93.5779 11.7448 93.4571 11.6104 93.293 11.5146C93.1335 11.4189 92.9262 11.3711 92.671 11.3711C92.4522 11.3711 92.2631 11.4098 92.1036 11.4873C91.9441 11.5602 91.821 11.6673 91.7345 11.8086C91.6479 11.9453 91.6046 12.1071 91.6046 12.2939H89.6358C89.6358 11.9795 89.7087 11.681 89.8546 11.3984C90.0004 11.1159 90.2123 10.8675 90.4903 10.6533C90.7683 10.4346 91.0987 10.2637 91.4815 10.1406C91.8689 10.0176 92.3018 9.95605 92.7803 9.95605C93.3546 9.95605 93.865 10.0518 94.3116 10.2432C94.7582 10.4346 95.1091 10.7217 95.3643 11.1045C95.6241 11.4873 95.754 11.9658 95.754 12.54V15.7051C95.754 16.1107 95.779 16.4434 95.8292 16.7031C95.8793 16.9583 95.9522 17.1816 96.0479 17.373V17.4893H94.0587C93.963 17.2887 93.8901 17.0381 93.8399 16.7373C93.7943 16.432 93.7716 16.1266 93.7716 15.8213ZM94.0313 12.9844L94.045 14.0986H92.9444C92.6846 14.0986 92.4591 14.1283 92.2677 14.1875C92.0762 14.2467 91.919 14.3311 91.796 14.4404C91.6729 14.5452 91.5818 14.6683 91.5225 14.8096C91.4678 14.9508 91.4405 15.1058 91.4405 15.2744C91.4405 15.443 91.4792 15.5957 91.5567 15.7324C91.6342 15.8646 91.7458 15.9694 91.8917 16.0469C92.0375 16.1198 92.2084 16.1562 92.4044 16.1562C92.7006 16.1562 92.9581 16.097 93.1768 15.9785C93.3956 15.86 93.5642 15.7142 93.6827 15.541C93.8057 15.3678 93.8695 15.2038 93.8741 15.0488L94.3936 15.8828C94.3207 16.0697 94.2205 16.2633 94.0928 16.4639C93.9698 16.6644 93.8126 16.8535 93.6212 17.0312C93.4298 17.2044 93.1996 17.348 92.9307 17.4619C92.6619 17.5713 92.3428 17.626 91.9737 17.626C91.5043 17.626 91.0782 17.5326 90.6954 17.3457C90.3171 17.1543 90.0164 16.8923 89.793 16.5596C89.5743 16.2223 89.4649 15.8395 89.4649 15.4111C89.4649 15.0238 89.5378 14.6797 89.6837 14.3789C89.8295 14.0781 90.0437 13.8252 90.3262 13.6201C90.6134 13.4105 90.9711 13.2533 91.3995 13.1484C91.8279 13.0391 92.3246 12.9844 92.8897 12.9844H94.0313Z" fill="#3C3593"/>
<path d="M116 10.9893L121 15.9893L126 10.9893H116Z" fill="#3C3593"/>
</svg>
