<svg width="107" height="19" viewBox="0 0 107 19" fill="none" xmlns="http://www.w3.org/2000/svg">
<path d="M7.224 18.192C5.944 18.192 4.824 17.992 3.864 17.592C2.904 17.176 2.16 16.592 1.632 15.84C1.12 15.072 0.864 14.184 0.864 13.176V12.648C0.864 12.568 0.888 12.504 0.936 12.456C1 12.392 1.072 12.36 1.152 12.36H3.888C3.968 12.36 4.032 12.392 4.08 12.456C4.144 12.504 4.176 12.568 4.176 12.648V13.008C4.176 13.648 4.472 14.192 5.064 14.64C5.656 15.072 6.456 15.288 7.464 15.288C8.312 15.288 8.944 15.112 9.36 14.76C9.776 14.392 9.984 13.944 9.984 13.416C9.984 13.032 9.856 12.712 9.6 12.456C9.344 12.184 8.992 11.952 8.544 11.76C8.112 11.552 7.416 11.272 6.456 10.92C5.384 10.552 4.472 10.176 3.72 9.792C2.984 9.408 2.36 8.888 1.848 8.232C1.352 7.56 1.104 6.736 1.104 5.76C1.104 4.8 1.352 3.96 1.848 3.24C2.344 2.52 3.032 1.968 3.912 1.584C4.792 1.2 5.808 1.008 6.96 1.008C8.176 1.008 9.256 1.224 10.2 1.656C11.16 2.088 11.904 2.696 12.432 3.48C12.976 4.248 13.248 5.144 13.248 6.168V6.528C13.248 6.608 13.216 6.68 13.152 6.744C13.104 6.792 13.04 6.816 12.96 6.816H10.2C10.12 6.816 10.048 6.792 9.984 6.744C9.936 6.68 9.912 6.608 9.912 6.528V6.336C9.912 5.664 9.632 5.096 9.072 4.632C8.528 4.152 7.776 3.912 6.816 3.912C6.064 3.912 5.472 4.072 5.04 4.392C4.624 4.712 4.416 5.152 4.416 5.712C4.416 6.112 4.536 6.448 4.776 6.72C5.032 6.992 5.4 7.24 5.88 7.464C6.376 7.672 7.136 7.96 8.16 8.328C9.296 8.744 10.184 9.112 10.824 9.432C11.48 9.752 12.064 10.232 12.576 10.872C13.104 11.496 13.368 12.312 13.368 13.32C13.368 14.824 12.816 16.016 11.712 16.896C10.608 17.76 9.112 18.192 7.224 18.192ZM20.9454 18.192C19.6654 18.192 18.5534 17.872 17.6094 17.232C16.6814 16.592 16.0174 15.712 15.6174 14.592C15.3454 13.792 15.2094 12.848 15.2094 11.76C15.2094 10.688 15.3454 9.76 15.6174 8.976C16.0014 7.888 16.6654 7.032 17.6094 6.408C18.5534 5.784 19.6654 5.472 20.9454 5.472C22.2254 5.472 23.3454 5.792 24.3054 6.432C25.2814 7.072 25.9294 7.88 26.2494 8.856C26.3774 9.24 26.4414 9.528 26.4414 9.72V9.768C26.4414 9.912 26.3614 10 26.2014 10.032L23.4414 10.44H23.3934C23.2494 10.44 23.1534 10.36 23.1054 10.2L23.0334 9.816C22.9214 9.4 22.6734 9.056 22.2894 8.784C21.9054 8.512 21.4494 8.376 20.9214 8.376C20.4094 8.376 19.9774 8.504 19.6254 8.76C19.2734 9.016 19.0254 9.368 18.8814 9.816C18.7054 10.296 18.6174 10.952 18.6174 11.784C18.6174 12.616 18.6974 13.272 18.8574 13.752C19.0014 14.232 19.2494 14.608 19.6014 14.88C19.9694 15.152 20.4094 15.288 20.9214 15.288C21.4174 15.288 21.8494 15.16 22.2174 14.904C22.6014 14.632 22.8654 14.264 23.0094 13.8C23.0254 13.768 23.0334 13.72 23.0334 13.656C23.0494 13.64 23.0574 13.616 23.0574 13.584C23.0734 13.392 23.1854 13.312 23.3934 13.344L26.1534 13.776C26.3134 13.808 26.3934 13.896 26.3934 14.04C26.3934 14.168 26.3454 14.408 26.2494 14.76C25.9134 15.832 25.2574 16.672 24.2814 17.28C23.3214 17.888 22.2094 18.192 20.9454 18.192ZM30.2361 4.272C29.6921 4.272 29.2361 4.096 28.8681 3.744C28.5161 3.376 28.3401 2.92 28.3401 2.376C28.3401 1.816 28.5161 1.36 28.8681 1.008C29.2201 0.656 29.6761 0.48 30.2361 0.48C30.7961 0.48 31.2521 0.656 31.6041 1.008C31.9561 1.36 32.1321 1.816 32.1321 2.376C32.1321 2.92 31.9481 3.376 31.5801 3.744C31.2281 4.096 30.7801 4.272 30.2361 4.272ZM28.7961 18C28.7161 18 28.6441 17.976 28.5801 17.928C28.5321 17.864 28.5081 17.792 28.5081 17.712V5.928C28.5081 5.848 28.5321 5.784 28.5801 5.736C28.6441 5.672 28.7161 5.64 28.7961 5.64H31.6041C31.6841 5.64 31.7481 5.672 31.7961 5.736C31.8601 5.784 31.8921 5.848 31.8921 5.928V17.712C31.8921 17.792 31.8601 17.864 31.7961 17.928C31.7481 17.976 31.6841 18 31.6041 18H28.7961Z" fill="#0B0378"/>
<path d="M40.6493 18.192C39.4013 18.192 38.3053 17.952 37.3613 17.472C36.4173 16.976 35.6893 16.288 35.1773 15.408C34.6653 14.528 34.4093 13.512 34.4093 12.36V6.816C34.4093 5.664 34.6653 4.648 35.1773 3.768C35.6893 2.888 36.4173 2.208 37.3613 1.728C38.3053 1.248 39.4013 1.008 40.6493 1.008C41.8813 1.008 42.9613 1.24 43.8893 1.704C44.8333 2.152 45.5613 2.8 46.0733 3.648C46.6013 4.48 46.8653 5.448 46.8653 6.552C46.8653 6.696 46.7693 6.784 46.5773 6.816L43.7693 6.984H43.7213C43.5613 6.984 43.4813 6.896 43.4813 6.72C43.4813 5.872 43.2173 5.192 42.6893 4.68C42.1773 4.168 41.4973 3.912 40.6493 3.912C39.7853 3.912 39.0893 4.168 38.5613 4.68C38.0493 5.192 37.7933 5.872 37.7933 6.72V12.504C37.7933 13.336 38.0493 14.008 38.5613 14.52C39.0893 15.032 39.7853 15.288 40.6493 15.288C41.4973 15.288 42.1773 15.032 42.6893 14.52C43.2173 14.008 43.4813 13.336 43.4813 12.504C43.4813 12.328 43.5773 12.24 43.7693 12.24L46.5773 12.36C46.6573 12.36 46.7213 12.384 46.7693 12.432C46.8333 12.48 46.8653 12.536 46.8653 12.6C46.8653 13.704 46.6013 14.68 46.0733 15.528C45.5613 16.376 44.8333 17.032 43.8893 17.496C42.9613 17.96 41.8813 18.192 40.6493 18.192ZM61.0108 3.816C61.0108 3.896 60.9788 3.968 60.9148 4.032C60.8668 4.08 60.8028 4.104 60.7228 4.104H52.8508C52.7708 4.104 52.7308 4.144 52.7308 4.224V7.944C52.7308 8.024 52.7708 8.064 52.8508 8.064H58.0108C58.0908 8.064 58.1548 8.096 58.2028 8.16C58.2668 8.208 58.2988 8.272 58.2988 8.352V10.68C58.2988 10.76 58.2668 10.832 58.2028 10.896C58.1548 10.944 58.0908 10.968 58.0108 10.968H52.8508C52.7708 10.968 52.7308 11.008 52.7308 11.088V14.976C52.7308 15.056 52.7708 15.096 52.8508 15.096H60.7228C60.8028 15.096 60.8668 15.128 60.9148 15.192C60.9788 15.24 61.0108 15.304 61.0108 15.384V17.712C61.0108 17.792 60.9788 17.864 60.9148 17.928C60.8668 17.976 60.8028 18 60.7228 18H49.6348C49.5548 18 49.4828 17.976 49.4188 17.928C49.3708 17.864 49.3468 17.792 49.3468 17.712V1.488C49.3468 1.408 49.3708 1.344 49.4188 1.296C49.4828 1.232 49.5548 1.2 49.6348 1.2H60.7228C60.8028 1.2 60.8668 1.232 60.9148 1.296C60.9788 1.344 61.0108 1.408 61.0108 1.488V3.816ZM69.1224 18.192C67.8424 18.192 66.7224 17.992 65.7624 17.592C64.8024 17.176 64.0584 16.592 63.5304 15.84C63.0184 15.072 62.7624 14.184 62.7624 13.176V12.648C62.7624 12.568 62.7864 12.504 62.8344 12.456C62.8984 12.392 62.9704 12.36 63.0504 12.36H65.7864C65.8664 12.36 65.9304 12.392 65.9784 12.456C66.0424 12.504 66.0744 12.568 66.0744 12.648V13.008C66.0744 13.648 66.3704 14.192 66.9624 14.64C67.5544 15.072 68.3544 15.288 69.3624 15.288C70.2104 15.288 70.8424 15.112 71.2584 14.76C71.6744 14.392 71.8824 13.944 71.8824 13.416C71.8824 13.032 71.7544 12.712 71.4984 12.456C71.2424 12.184 70.8904 11.952 70.4424 11.76C70.0104 11.552 69.3144 11.272 68.3544 10.92C67.2824 10.552 66.3704 10.176 65.6184 9.792C64.8824 9.408 64.2584 8.888 63.7464 8.232C63.2504 7.56 63.0024 6.736 63.0024 5.76C63.0024 4.8 63.2504 3.96 63.7464 3.24C64.2424 2.52 64.9304 1.968 65.8104 1.584C66.6904 1.2 67.7064 1.008 68.8584 1.008C70.0744 1.008 71.1544 1.224 72.0984 1.656C73.0584 2.088 73.8024 2.696 74.3304 3.48C74.8744 4.248 75.1464 5.144 75.1464 6.168V6.528C75.1464 6.608 75.1144 6.68 75.0504 6.744C75.0024 6.792 74.9384 6.816 74.8584 6.816H72.0984C72.0184 6.816 71.9464 6.792 71.8824 6.744C71.8344 6.68 71.8104 6.608 71.8104 6.528V6.336C71.8104 5.664 71.5304 5.096 70.9704 4.632C70.4264 4.152 69.6744 3.912 68.7144 3.912C67.9624 3.912 67.3704 4.072 66.9384 4.392C66.5224 4.712 66.3144 5.152 66.3144 5.712C66.3144 6.112 66.4344 6.448 66.6744 6.72C66.9304 6.992 67.2984 7.24 67.7784 7.464C68.2744 7.672 69.0344 7.96 70.0584 8.328C71.1944 8.744 72.0824 9.112 72.7224 9.432C73.3784 9.752 73.9624 10.232 74.4744 10.872C75.0024 11.496 75.2664 12.312 75.2664 13.32C75.2664 14.824 74.7144 16.016 73.6104 16.896C72.5064 17.76 71.0104 18.192 69.1224 18.192ZM88.3159 18C88.1559 18 88.0519 17.92 88.0039 17.76L87.2839 15.408C87.2519 15.344 87.2119 15.312 87.1639 15.312H81.2599C81.2119 15.312 81.1719 15.344 81.1399 15.408L80.4439 17.76C80.3959 17.92 80.2919 18 80.1319 18H77.0839C76.9879 18 76.9159 17.976 76.8679 17.928C76.8199 17.864 76.8119 17.776 76.8439 17.664L82.0279 1.44C82.0759 1.28 82.1799 1.2 82.3399 1.2H86.1079C86.2679 1.2 86.3719 1.28 86.4199 1.44L91.6039 17.664C91.6199 17.696 91.6279 17.736 91.6279 17.784C91.6279 17.928 91.5399 18 91.3639 18H88.3159ZM82.0039 12.552C81.9879 12.648 82.0199 12.696 82.0999 12.696H86.3239C86.4199 12.696 86.4519 12.648 86.4199 12.552L84.2599 5.424C84.2439 5.36 84.2199 5.336 84.1879 5.352C84.1559 5.352 84.1319 5.376 84.1159 5.424L82.0039 12.552ZM102.953 18C102.793 18 102.681 17.928 102.617 17.784L99.6174 11.136C99.5854 11.072 99.5374 11.04 99.4734 11.04H97.2414C97.1614 11.04 97.1214 11.08 97.1214 11.16V17.712C97.1214 17.792 97.0894 17.864 97.0254 17.928C96.9774 17.976 96.9134 18 96.8334 18H94.0254C93.9454 18 93.8734 17.976 93.8094 17.928C93.7614 17.864 93.7374 17.792 93.7374 17.712V1.488C93.7374 1.408 93.7614 1.344 93.8094 1.296C93.8734 1.232 93.9454 1.2 94.0254 1.2H100.889C101.913 1.2 102.809 1.408 103.577 1.824C104.361 2.24 104.961 2.832 105.377 3.6C105.809 4.368 106.025 5.256 106.025 6.264C106.025 7.352 105.753 8.288 105.209 9.072C104.665 9.84 103.905 10.384 102.929 10.704C102.849 10.736 102.825 10.792 102.857 10.872L106.121 17.664C106.153 17.728 106.169 17.776 106.169 17.808C106.169 17.936 106.081 18 105.905 18H102.953ZM97.2414 4.104C97.1614 4.104 97.1214 4.144 97.1214 4.224V8.328C97.1214 8.408 97.1614 8.448 97.2414 8.448H100.385C101.057 8.448 101.601 8.248 102.017 7.848C102.449 7.448 102.665 6.928 102.665 6.288C102.665 5.648 102.449 5.128 102.017 4.728C101.601 4.312 101.057 4.104 100.385 4.104H97.2414Z" fill="#FF6002"/>
</svg>
