<svg width="57" height="48" viewBox="0 0 57 48" fill="none" xmlns="http://www.w3.org/2000/svg">
<path d="M0 0H49C53.4183 0 57 3.58172 57 8V40C57 44.4183 53.4183 48 49 48H0V0Z" fill="#24067A" fill-opacity="0.2"/>
<path fill-rule="evenodd" clip-rule="evenodd" d="M30.76 25.27L36.49 31L35 32.49L29.27 26.76C28.2 27.53 26.91 28 25.5 28C21.91 28 19 25.09 19 21.5C19 17.91 21.91 15 25.5 15C29.09 15 32 17.91 32 21.5C32 22.91 31.53 24.2 30.76 25.27ZM25.5 17C23.01 17 21 19.01 21 21.5C21 23.99 23.01 26 25.5 26C27.99 26 30 23.99 30 21.5C30 19.01 27.99 17 25.5 17Z" fill="#3C3593"/>
</svg>
